<svg viewBox="0 0 32 32" fill="none" xmlns="http://www.w3.org/2000/svg"><g clip-path="url(#a)"><path fill="url(#b)" d="M0 0h32v32h-32z"/><path d="M15.86 26c-1 0-1.88-.17-2.61-.5a3.4 3.4 0 0 1-1.7-1.77 9.2 9.2 0 0 1-.55-3.57v-1.14h3.02v1.4c0 .94.08 1.66.24 2.17a2 2 0 0 0 .68 1.07c.29.18.61.27.98.27.6 0 1.07-.21 1.42-.63.37-.45.55-1.27.55-2.48a4.2 4.2 0 0 0-.37-2c-.24-.44-.63-.8-1.17-1.07-.5-.29-1.18-.6-2-.97a7.62 7.62 0 0 1-1.75-1.16 4.1 4.1 0 0 1-1.1-1.7 7.73 7.73 0 0 1-.38-2.58c0-1.24.15-2.26.43-3.04.31-.8.82-1.38 1.54-1.73a6.23 6.23 0 0 1 2.9-.57c1.55 0 2.74.39 3.56 1.17.82.76 1.23 1.87 1.23 3.34v2.3h-2.89v-1.37c0-1.02-.15-1.76-.46-2.2-.29-.47-.76-.7-1.41-.7-.68 0-1.17.22-1.48.67-.29.42-.43 1.1-.43 2.03 0 .8.14 1.43.43 1.87.29.42.65.76 1.1 1 .48.25.96.47 1.45.67.93.38 1.67.77 2.25 1.17.57.4 1 .93 1.26 1.6.27.67.4 1.62.4 2.84 0 1.4-.22 2.52-.65 3.34-.4.8-1 1.38-1.78 1.74a6.4 6.4 0 0 1-2.7.53Z" fill="#fff"/></g><defs><linearGradient id="b" x1="6.328" y1="0" x2="33.851" y2="3.406" gradientUnits="userSpaceOnUse"><stop stop-color="#ED0233"/><stop offset="1" stop-color="#003EB7"/></linearGradient><clipPath id="a"><path fill="#fff" d="M0 0h32v32h-32z"/></clipPath></defs></svg>
